<?xml version="1.0" standalone="no"?>
<!DOCTYPE svg PUBLIC "-//W3C//DTD SVG 20010904//EN"
 "http://www.w3.org/TR/2001/REC-SVG-20010904/DTD/svg10.dtd">
<svg version="1.0" xmlns="http://www.w3.org/2000/svg"
 width="4000.000000pt" height="2667.000000pt" viewBox="0 0 4000.000000 2667.000000"
 preserveAspectRatio="xMidYMid meet">

<g transform="translate(0.000000,2667.000000) scale(0.100000,-0.100000)"
fill="#000000" stroke="none">
<path d="M0 13335 l0 -13335 20000 0 20000 0 0 13335 0 13335 -20000 0 -20000
0 0 -13335z m22360 6103 c0 -856 -23 -1211 -116 -1763 -251 -1494 -925 -2889
-1946 -4028 -56 -62 605 593 1468 1455 l1569 1568 1667 -1667 1668 -1668
-1744 -1745 c-1242 -1243 -1768 -1777 -1830 -1855 -371 -468 -603 -991 -695
-1566 -35 -215 -41 -350 -41 -931 l0 -568 -2361 0 -2362 0 6 678 c6 658 11
789 43 1112 164 1661 865 3263 1973 4510 46 52 96 109 110 125 14 17 -679
-673 -1539 -1532 l-1565 -1563 -1663 1663 c-914 914 -1662 1666 -1662 1672 0
5 789 800 1753 1765 1044 1045 1779 1789 1818 1838 398 515 607 1004 706 1652
13 86 17 224 20 758 l4 652 2360 0 2359 0 0 -562z"/>
</g>
</svg>
