<?xml version="1.0" standalone="no"?>
<!DOCTYPE svg PUBLIC "-//W3C//DTD SVG 20010904//EN"
 "http://www.w3.org/TR/2001/REC-SVG-20010904/DTD/svg10.dtd">
<svg version="1.0" xmlns="http://www.w3.org/2000/svg"
 width="600.000000pt" height="400.000000pt" viewBox="0 0 600.000000 400.000000"
 preserveAspectRatio="xMidYMid meet">

<g transform="translate(0.000000,400.000000) scale(0.100000,-0.100000)"
fill="#000000" stroke="none">
<path d="M0 2000 l0 -2000 3000 0 3000 0 0 2000 0 2000 -3000 0 -3000 0 0
-2000z m1598 276 c-4 -53 -12 -90 -31 -127 l-25 -52 52 52 52 51 74 -75 75
-75 -82 -83 c-84 -83 -113 -132 -113 -187 l0 -30 -106 0 -107 0 6 66 c4 38 17
90 32 122 14 30 24 57 22 58 -2 2 -23 -17 -47 -41 -24 -25 -49 -45 -55 -45 -5
0 -40 31 -77 68 l-68 68 80 79 c89 88 110 124 110 184 l0 41 106 0 107 0 -5
-74z m599 -126 c32 -19 63 -66 63 -95 0 -9 -9 -15 -25 -15 -15 0 -25 6 -25 14
0 8 -11 28 -24 43 -21 24 -31 28 -79 28 -64 0 -97 -22 -97 -65 0 -38 14 -47
110 -71 136 -33 160 -53 160 -126 0 -76 -56 -117 -161 -117 -95 0 -148 37
-174 122 -6 19 -3 22 24 22 24 0 31 -4 31 -19 0 -11 11 -33 24 -48 22 -26 30
-28 94 -28 80 0 112 19 112 66 0 36 -21 56 -73 69 -168 43 -197 62 -197 127 0
73 52 112 150 113 37 0 65 -6 87 -20z m1263 -190 l0 -210 -25 0 -25 0 0 210 0
210 25 0 25 0 0 -210z m548 178 c-2 -28 -7 -33 -28 -33 -21 0 -26 5 -28 33 -3
30 -1 32 28 32 29 0 31 -2 28 -32z m652 22 c0 -5 -9 -10 -20 -10 -17 0 -20 -7
-20 -50 0 -27 -4 -50 -10 -50 -5 0 -10 23 -10 50 0 38 -4 50 -15 50 -8 0 -15
5 -15 10 0 6 20 10 45 10 25 0 45 -4 45 -10z m60 -40 l17 -44 21 47 c28 64 42
60 42 -13 0 -61 -19 -87 -21 -27 l0 32 -16 -32 c-9 -18 -21 -33 -25 -33 -5 0
-15 15 -23 33 l-14 32 -1 -32 c0 -18 -4 -33 -10 -33 -6 0 -10 27 -10 61 0 72
14 75 40 9z m-870 -35 c0 -33 2 -35 35 -35 28 0 35 -4 35 -20 0 -16 -7 -20
-35 -20 l-35 0 0 -98 c0 -107 6 -122 53 -122 22 0 28 -4 25 -17 -5 -27 -68
-29 -99 -4 -22 18 -24 27 -27 130 -4 110 -4 111 -28 111 -17 0 -24 6 -24 20 0
15 7 20 25 20 22 0 25 4 25 35 0 31 3 35 25 35 22 0 25 -4 25 -35z m-1045 -41
c119 -56 96 -276 -30 -300 -25 -4 -46 0 -74 13 l-40 20 -3 -61 c-3 -55 -5 -61
-25 -64 l-23 -3 0 200 0 201 25 0 c15 0 25 -6 25 -14 0 -11 8 -10 37 5 45 23
65 24 108 3z m300 2 c43 -18 75 -69 75 -118 l0 -38 -110 0 c-121 0 -125 -2
-95 -59 28 -56 115 -61 144 -9 11 19 23 28 36 26 46 -7 -3 -81 -64 -98 -75
-21 -163 32 -177 106 -16 84 13 154 77 186 41 22 69 22 114 4z m600 -16 c29
-27 34 -51 37 -183 3 -93 2 -97 -18 -97 -14 0 -24 8 -27 22 -6 21 -7 21 -25 5
-46 -42 -136 -39 -167 6 -8 12 -15 35 -15 52 0 48 35 74 118 88 39 7 74 15 77
19 13 12 -5 57 -26 69 -32 17 -88 2 -101 -27 -7 -15 -19 -24 -35 -24 -27 0
-29 16 -7 49 38 54 142 65 189 21z m783 15 c44 -18 68 -54 78 -113 l7 -42
-112 0 -111 0 0 -24 c0 -41 41 -80 85 -80 31 0 43 6 65 32 25 31 60 43 60 22
0 -26 -31 -68 -57 -78 -57 -21 -66 -22 -102 -12 -77 20 -122 108 -100 194 13
51 38 82 83 102 40 17 58 17 104 -1z m-2126 -110 c2 -92 6 -118 20 -132 25
-25 83 -22 111 5 20 20 22 35 25 132 4 109 4 110 28 110 l24 0 0 -150 0 -150
-25 0 c-16 0 -25 6 -25 15 0 19 -14 19 -29 1 -17 -20 -72 -28 -109 -15 -52 18
-66 51 -70 166 -5 115 -1 133 27 133 18 0 20 -9 23 -115z m904 98 c1 -7 2 -16
3 -19 0 -3 13 4 27 15 15 12 40 21 55 21 24 0 29 -4 29 -25 0 -22 -4 -25 -39
-25 -57 0 -65 -16 -71 -139 -5 -101 -6 -106 -27 -109 -23 -3 -23 -3 -23 148 0
151 0 151 23 148 12 -2 23 -9 23 -15z m734 -133 c0 -143 -1 -150 -20 -150 -19
0 -20 7 -20 150 0 143 1 150 20 150 19 0 20 -7 20 -150z m104 78 c14 -40 34
-98 44 -128 l19 -55 20 55 c11 30 31 88 44 128 20 62 26 72 46 72 13 0 23 -3
23 -7 0 -5 -23 -72 -51 -151 l-52 -143 -31 3 c-30 3 -32 7 -78 133 -26 72 -50
138 -54 148 -4 13 0 17 19 17 22 0 28 -9 51 -72z"/>
<path d="M2714 2010 c-69 -27 -82 -152 -23 -206 26 -23 82 -23 109 1 49 44 46
153 -7 194 -28 22 -45 25 -79 11z"/>
<path d="M3015 2006 c-25 -11 -55 -50 -55 -71 0 -3 38 -5 85 -5 77 0 85 2 85
19 0 26 -30 59 -60 65 -14 3 -39 0 -55 -8z"/>
<path d="M3611 1889 c-24 -4 -50 -14 -58 -20 -23 -20 -12 -62 20 -77 52 -25
117 20 117 80 0 31 -5 32 -79 17z"/>
<path d="M4404 2010 c-24 -9 -54 -47 -54 -67 0 -10 23 -13 85 -13 94 0 104 8
63 54 -26 29 -63 39 -94 26z"/>
</g>
</svg>
